static_grf.mot
version=1
nRows=20
nColumns 19
inDegrees=yes
endheader
time	1_ground_force_vx	1_ground_force_vy	1_ground_force_vz	1_ground_force_px	1_ground_force_py	1_ground_force_pz	1_ground_torque_x	1_ground_torque_y	1_ground_torque_z	2_ground_force_vx	2_ground_force_vy	2_ground_force_vz	2_ground_force_px	2_ground_force_py	2_ground_force_pz	2_ground_torque_x	2_ground_torque_y	2_ground_torque_z
            0.503500	            3.110239	          247.417725	          -20.545595	           -0.270787	            0.006176	           -0.395995	            0.015615	            1.242136	           -0.103147	           -4.984208	          228.251040	           22.638095	           -0.232876	            0.005649	           -0.699454	            0.032030	           -1.466831	           -0.145481
            0.504000	            2.881282	          248.498489	          -20.356964	           -0.270977	            0.006173	           -0.395204	            0.014182	            1.223166	           -0.100202	           -5.124572	          228.249026	           23.060507	           -0.232896	            0.005649	           -0.699374	            0.031245	           -1.391637	           -0.140600
            0.504500	            2.743576	          247.597724	          -20.498056	           -0.270701	            0.006173	           -0.395290	            0.012822	            1.157099	           -0.095794	           -5.073193	          226.961154	           22.774319	           -0.232730	            0.005647	           -0.698776	            0.031527	           -1.410451	           -0.141531
            0.505000	            2.973033	          248.137975	          -20.358738	           -0.270647	            0.006172	           -0.395030	            0.014275	            1.191444	           -0.097753	           -5.124031	          228.065890	           22.778282	           -0.232990	            0.005648	           -0.699349	            0.031094	           -1.383954	           -0.138224
            0.505500	            3.018520	          247.597973	          -20.544594	           -0.270862	            0.006175	           -0.395744	            0.014770	            1.211557	           -0.100530	           -4.798076	          228.619526	           22.780113	           -0.233028	            0.005651	           -0.700003	            0.031232	           -1.488132	           -0.148280
            0.506000	            3.109978	          247.598384	          -20.636534	           -0.270613	            0.006175	           -0.395683	            0.015353	            1.222301	           -0.101875	           -5.217772	          228.065886	           22.684465	           -0.232989	            0.005648	           -0.699346	            0.031805	           -1.390186	           -0.138274
            0.506500	            3.064557	          247.777855	          -20.452223	           -0.270831	            0.006174	           -0.395550	            0.014892	            1.204057	           -0.099386	           -5.077825	          228.250032	           22.825847	           -0.232744	            0.005649	           -0.699294	            0.030594	           -1.375203	           -0.137525
            0.507000	            3.018145	          247.778829	          -20.681389	           -0.270974	            0.006172	           -0.395134	            0.015053	            1.235774	           -0.103147	           -4.939455	          228.804498	           22.405405	           -0.232491	            0.005651	           -0.699537	            0.030607	           -1.417768	           -0.138833
            0.507500	            3.110368	          247.958129	          -20.451564	           -0.270942	            0.006173	           -0.395294	            0.015320	            1.221316	           -0.100734	           -4.937940	          228.434680	           22.826444	           -0.232709	            0.005649	           -0.699153	            0.031536	           -1.458870	           -0.145778
            0.508000	            3.293707	          248.138430	          -20.451246	           -0.271005	            0.006172	           -0.395108	            0.017300	            1.303296	           -0.107416	           -5.172916	          228.618508	           22.686417	           -0.232885	            0.005649	           -0.699503	            0.032631	           -1.442124	           -0.143106
            0.508500	            3.156210	          247.958138	          -20.451678	           -0.270693	            0.006174	           -0.395443	            0.016037	            1.259868	           -0.103914	           -5.218416	          228.249859	           22.732050	           -0.232817	            0.005649	           -0.699453	            0.032140	           -1.405799	           -0.140007
            0.509000	            3.202185	          247.237084	          -20.454883	           -0.270875	            0.006175	           -0.395776	            0.016107	            1.243576	           -0.102886	           -4.985496	          228.619017	           22.733265	           -0.232877	            0.005649	           -0.699425	            0.031780	           -1.457346	           -0.144915
            0.509500	            3.202038	          247.417547	          -20.499966	           -0.270784	            0.006175	           -0.395684	            0.015608	            1.206047	           -0.099928	           -5.174142	          228.985952	           22.922371	           -0.233139	            0.005649	           -0.699639	            0.031875	           -1.410671	           -0.141214
            0.510000	            3.109765	          248.139378	          -20.680071	           -0.270456	            0.006173	           -0.395309	            0.015282	            1.219417	           -0.101627	           -4.986058	          228.802321	           22.968562	           -0.233286	            0.005649	           -0.699698	            0.031572	           -1.448780	           -0.145437
            0.510500	            2.743054	          247.959041	          -20.679933	           -0.271074	            0.006173	           -0.395189	            0.013577	            1.227258	           -0.102354	           -5.128060	          229.171099	           22.688368	           -0.232917	            0.005650	           -0.699670	            0.030539	           -1.364793	           -0.135117
            0.511000	            3.064021	          247.598572	          -20.682276	           -0.270546	            0.006174	           -0.395540	            0.015044	            1.215656	           -0.101546	           -5.173498	          228.801979	           22.874786	           -0.232748	            0.005650	           -0.699453	            0.030829	           -1.363418	           -0.136310
            0.511500	            2.972434	          247.057757	          -20.684367	           -0.270794	            0.006176	           -0.396001	            0.014664	            1.218805	           -0.102042	           -5.171587	          228.250196	           22.685102	           -0.232882	            0.005647	           -0.698874	            0.032826	           -1.448775	           -0.143989
            0.512000	            3.201763	          247.057605	          -20.639080	           -0.270518	            0.006175	           -0.395684	            0.016101	            1.242406	           -0.103790	           -5.314754	          228.985947	           22.781647	           -0.232739	            0.005649	           -0.699391	            0.032292	           -1.391279	           -0.138417
            0.512500	            3.109750	          247.598778	          -20.728245	           -0.270741	            0.006175	           -0.395695	            0.016127	            1.284031	           -0.107495	           -5.266616	          228.618169	           22.686456	           -0.232591	            0.005651	           -0.699754	            0.031286	           -1.358093	           -0.134768
            0.513000	            3.018193	          248.139164	          -20.633987	           -0.271321	            0.006173	           -0.395227	            0.014318	            1.177133	           -0.097884	           -5.175616	          229.355436	           22.595189	           -0.233162	            0.005649	           -0.699776	            0.030999	           -1.373701	           -0.135332
